<svg id="圖層_2" data-name="圖層 2" xmlns="http://www.w3.org/2000/svg" viewBox="0 0 100 70"><defs><style>.cls-1{fill:#231815;}</style></defs><title>icons for site</title><path class="cls-1" d="M62,21.64H78.69l-1-1v9a1,1,0,0,0,1,1h4.7l-1-1V42.31l1-1H78.77a1,1,0,0,0-1,1v9.41l1-1H54.91a1,1,0,0,0,0,2H78.77a1,1,0,0,0,1-1V42.31l-1,1h4.62a1,1,0,0,0,1-1V29.62a1,1,0,0,0-1-1h-4.7l1,1v-9a1,1,0,0,0-1-1H62a1,1,0,0,0,0,2Z"/><path class="cls-1" d="M59.12,4,35.18,33.41l-3.41,4.2c-.5.61-.24,1.78.71,1.71l12.22-.88-1-1.27L34.41,65a1,1,0,0,0,1.68,1L60.94,36.13l3.57-4.28c.5-.61.23-1.78-.71-1.72l-13,.89,1,1.27,9-27.35c.41-1.23-1.53-1.76-1.93-.54l-9,27.35a1,1,0,0,0,1,1.27l13-.88-.71-1.71L38.23,60.29l-3.56,4.29,1.67,1L45.67,37.7a1,1,0,0,0-1-1.27l-12.22.89L33.19,39,57.12,9.58l3.42-4.2C61.34,4.39,59.93,3,59.12,4Z"/><path class="cls-1" d="M17.94,28.11H31.05a1,1,0,0,0,0-2H17.94a1,1,0,0,0,0,2Z"/><path class="cls-1" d="M17.1,46.85H30.21a1,1,0,0,0,0-2H17.1a1,1,0,0,0,0,2Z"/><path class="cls-1" d="M9,37.48H25.17a1,1,0,0,0,0-2H9a1,1,0,0,0,0,2Z"/></svg>