<svg id="圖層_2" data-name="圖層 2" xmlns="http://www.w3.org/2000/svg" viewBox="0 0 100 70"><defs><style>.cls-1{fill:#231815;}</style></defs><title>icons for site</title><path class="cls-1" d="M81.5,34.58A31,31,0,0,1,26.8,54.47,31,31,0,0,1,56.53,4.19a31.3,31.3,0,0,1,25,30.39,1,1,0,0,0,1.9,0A32.86,32.86,0,0,0,25.14,13.72a33.19,33.19,0,0,0-2.73,37.87A33.21,33.21,0,0,0,57,66.8,33.22,33.22,0,0,0,83.4,34.58,1,1,0,0,0,81.5,34.58Z"/><path class="cls-1" d="M54,34.58c-.24,4.49-7,4.53-7,0s6.77-4.5,7,0c.07,1.21,2,1.22,1.9,0A5.41,5.41,0,1,0,50.29,40a5.5,5.5,0,0,0,5.65-5.39C56,33.36,54.11,33.36,54,34.58Z"/><path class="cls-1" d="M50.55,34.58c0-.1,0,0,0,.05s.06-.07,0,0,0,0,0,0-.15,0,0,0,0,0-.06,0,.15.11,0,0,0,0,0,0,0-.14,0,0,0,0,0-.06,0,.09,0,.08.11-.12,0,0,.1,0,.06,0,0,0,0,0l-.08,0s.13.13,0,0,0,.15,0,0a1,1,0,0,0,1,.94,1,1,0,0,0,1-.94,1.92,1.92,0,1,0-2,1.91,1.94,1.94,0,0,0,2-1.91,1,1,0,0,0-1-.95A1,1,0,0,0,50.55,34.58Z"/><path class="cls-1" d="M72.51,47.13c7-12.67,2.12-29.16-11.1-35.41a25.58,25.58,0,0,0-33.29,11.1A25.7,25.7,0,0,0,28.48,47a1,1,0,0,0,1.3.34l6.91-3.89A1,1,0,0,0,37,42.16c-5.51-10.22,1.74-23.07,13.51-23.07S69.58,32,64,42.25a1,1,0,0,0,.34,1.29l6.89,3.93a1,1,0,0,0,1-1.64l-6.88-3.92.34,1.29c4.77-8.73,1.5-20-7.65-24.33A17.38,17.38,0,0,0,35.39,43.11l.34-1.29L28.82,45.7l1.3.34a23.41,23.41,0,1,1,41.3-22,23.67,23.67,0,0,1-.55,22.18C70.28,47.24,71.92,48.2,72.51,47.13Z"/><path class="cls-1" d="M51.21,35.25,71,15.37A1,1,0,0,0,69.63,14L49.87,33.91a1,1,0,0,0,1.34,1.34Z"/><path class="cls-1" d="M26.56,35.52H34.1a1,1,0,0,0,0-1.89H26.56a1,1,0,0,0,0,1.89Z"/><path class="cls-1" d="M29.43,23.3l6.45,3.78a1,1,0,0,0,.95-1.64l-6.45-3.78a1,1,0,0,0-.95,1.64Z"/><path class="cls-1" d="M37.65,13.9l3.92,6.88a1,1,0,0,0,1.64-1l-3.92-6.88a1,1,0,0,0-1.64,1Z"/><path class="cls-1" d="M49.55,10.22v7.92a1,1,0,0,0,1.9,0V10.22a1,1,0,0,0-1.9,0Z"/><path class="cls-1" d="M61.88,13l-4,6.86a1,1,0,0,0,1.64,1l4-6.87A1,1,0,0,0,61.88,13Z"/><path class="cls-1" d="M70.59,21.76l-6.3,3.68a1,1,0,0,0,.95,1.64l6.31-3.68a1,1,0,0,0-1-1.64Z"/><path class="cls-1" d="M74.43,33.43,67,33.49a1,1,0,0,0,0,1.9l7.46-.06a1,1,0,0,0,0-1.9Z"/><path class="cls-1" d="M61.45,54.57H39.62l1,1V51.24l-1,.95H61.45l-.94-.95v4.28a1,1,0,0,0,1.89,0V51.24a1,1,0,0,0-.95-1H39.62a1,1,0,0,0-.95,1v4.28a1,1,0,0,0,.95.94H61.45A1,1,0,0,0,61.45,54.57Z"/></svg>