<svg id="圖層_2" data-name="圖層 2" xmlns="http://www.w3.org/2000/svg" viewBox="0 0 100 70"><defs><style>.cls-1{fill:#231815;}</style></defs><title>icons for site</title><path class="cls-1" d="M18.29,63.86h28.6c11,0,21.94.25,32.88,0,1.24,0,1.53-.8,2.07-1.84a53.35,53.35,0,0,0,4.3-11.4A39.92,39.92,0,0,0,82,20.89,29.88,29.88,0,0,0,59.74,6.18a33.06,33.06,0,0,0-25.32,6.9,34.94,34.94,0,0,0-9,11.49c-4.88,9.12-8.23,19.35-8.57,29.74a49.69,49.69,0,0,0,.55,8.87c.17,1.17,2,.67,1.78-.5-1.8-12.09,1.47-24.51,6.86-35.3,2.57-5.13,5.38-9.65,9.94-13.19A31.61,31.61,0,0,1,65.59,9.44c10.06,3.45,16.14,12.33,18.75,22.28C87,42,84.87,53.33,79.49,62.46l.8-.46h-62A.93.93,0,0,0,18.29,63.86Z"/><path class="cls-1" d="M26.87,24.76h21c1.18,0,2.37,0,3.55,0a3.17,3.17,0,0,1,3,4.57c-1.33,3-3,5.82-4.54,8.71l-4.91,9.43.8-.46H18.37a.93.93,0,0,0,0,1.85H45.73a.92.92,0,0,0,.8-.46c3.15-6,6.52-12,9.47-18.19a5,5,0,0,0-1.67-6.51,6.78,6.78,0,0,0-3.9-.79H26.87a.93.93,0,0,0,0,1.85Z"/><path class="cls-1" d="M17.86,60H82.21a.93.93,0,0,0,0-1.85H17.86a.93.93,0,0,0,0,1.85Z"/></svg>