<svg id="圖層_2" data-name="圖層 2" xmlns="http://www.w3.org/2000/svg" viewBox="0 0 100 70"><defs><style>.cls-1{fill:#231815;}</style></defs><title>icons for site</title><path class="cls-1" d="M42.4,14.87,39.6,38.11c-.07.51.48.94.94,1l5,.09L44.58,38,41.9,56.72a1,1,0,0,0,1.74.73l18-25.39a1,1,0,0,0-.82-1.43H51.29l.92,1.2,2.86-16.59A1,1,0,0,0,54.16,14l-10.81-.1a1,1,0,0,0,0,1.89l10.81.11-.91-1.2-2.87,16.6a1,1,0,0,0,.91,1.2h9.53L60,31.1,42,56.5l1.73.73,2.68-18.78a1,1,0,0,0-.92-1.2l-5-.09,1,1,2.8-23.24C44.44,13.67,42.54,13.68,42.4,14.87Z"/><path class="cls-1" d="M21.19,28.06A29.19,29.19,0,0,1,73.12,17.55a29.59,29.59,0,0,1,5.66,17.28,1,1,0,0,0,1.9,0A31.08,31.08,0,0,0,29.91,10.77,31.44,31.44,0,0,0,19.36,27.56a1,1,0,0,0,1.83.5Z"/><path class="cls-1" d="M86.87,26.35l-7.81,7.81H80.4l-7.82-7.81a1,1,0,0,0-1.34,1.34l7.82,7.81a1,1,0,0,0,1.34,0l7.82-7.81a1,1,0,0,0-1.35-1.34Z"/><path class="cls-1" d="M78.81,42.54A29.19,29.19,0,0,1,26.88,53.05a29.59,29.59,0,0,1-5.66-17.28,1,1,0,0,0-1.9,0A31.08,31.08,0,0,0,70.09,59.83,31.44,31.44,0,0,0,80.64,43a1,1,0,0,0-1.83-.5Z"/><path class="cls-1" d="M13.13,44.25l7.81-7.81H19.6l7.82,7.81a1,1,0,0,0,1.34-1.34L20.94,35.1a1,1,0,0,0-1.34,0l-7.82,7.81a1,1,0,0,0,1.35,1.34Z"/></svg>