<svg id="圖層_2" data-name="圖層 2" xmlns="http://www.w3.org/2000/svg" viewBox="0 0 100 70"><defs><style>.cls-1{fill:#231815;}</style></defs><title>icons for site</title><path class="cls-1" d="M58.17,54a5.42,5.42,0,1,0,6.74-3.65A5.52,5.52,0,0,0,58.17,54c-.46,1.28,1.57,1.83,2,.56,1.43-4,7.59-2.14,6.34,2s-7.36,2.14-6.34-2A1.05,1.05,0,0,0,58.17,54Z"/><path class="cls-1" d="M52,52.14a11.89,11.89,0,0,0,18,13.3c9-6,5.56-20.39-5.18-21.68A12.06,12.06,0,0,0,52,52.14c-.43,1.29,1.6,1.84,2,.56a9.78,9.78,0,1,1,6.5,12.22A9.89,9.89,0,0,1,54,52.7,1.05,1.05,0,0,0,52,52.14Z"/><path class="cls-1" d="M7.55,38.73a5.5,5.5,0,0,0,3.65,6.74,5.42,5.42,0,1,0-3.65-6.74c-.46,1.28,1.57,1.83,2,.56,1.43-4,7.59-2.14,6.34,2s-7.36,2.14-6.34-2A1.05,1.05,0,0,0,7.55,38.73Z"/><path class="cls-1" d="M1.45,36.86A12.08,12.08,0,0,0,5.6,49.7a12,12,0,0,0,13.83.46c9-6,5.57-20.39-5.18-21.68a12.06,12.06,0,0,0-12.8,8.38c-.42,1.29,1.61,1.84,2,.56a9.9,9.9,0,0,1,12.22-6.5A9.79,9.79,0,0,1,10,49.64a9.91,9.91,0,0,1-6.5-12.22A1.05,1.05,0,0,0,1.45,36.86Z"/><path class="cls-1" d="M59.46,53.28l-29.59-9a1.05,1.05,0,0,0-.56,2l29.59,9a1.05,1.05,0,0,0,.56-2Z"/><path class="cls-1" d="M16.38,37.66,30.43,21.34l-1,.27,28.45,8.6a1.05,1.05,0,0,0,.56-2L30,19.58a1,1,0,0,0-1,.27l-14,16.33c-.88,1,.6,2.51,1.48,1.48Z"/><path class="cls-1" d="M38.91,30.69,17,23.84l.46,1.76,9-10.62c.87-1-.61-2.52-1.49-1.49L16,24.11a1.07,1.07,0,0,0,.47,1.76l21.89,6.85c1.3.4,1.85-1.63.56-2Z"/><path class="cls-1" d="M48.15,25.12c-7.42-.6-13.8,7.2-10.43,14.27,2.49,5.23,8.41,5.79,13.37,7.29a1.07,1.07,0,0,0,1.3-.73l2.08-6.88a1.07,1.07,0,0,0-.74-1.29l-3-.91c-.36-.1-2.65-.61-2.06-1s2.61.26,3.28.43c1,.24,1.9.55,2.84.81a16.49,16.49,0,0,0,4.62.71c7.12-.16,11.17-10.29,7-15.78-1.61-2.12-4-3-6.5-3.75L51,15.58l-9-2.71c-.3-.09-1.55-.68-1.82-.55.53-.26.26.85.46.14s-.29-2-.23-2.78C40.72,6.73,42,4.14,44.81,3a7.78,7.78,0,0,1,6.69.46c5,2.81,3.1,9.25.48,12.64-.82,1.06.66,2.56,1.48,1.49,2.34-3,4.16-7.36,3-11.18-1.19-4-5.56-6.38-9.58-6-4.7.42-7.73,3.62-8.4,8.19-.29,2-.56,5.08,1.64,5.86,6.31,2.26,12.91,3.91,19.32,5.85,4,1.22,7,3.44,6.29,8.14-.38,2.48-1.4,5.44-3.79,6.65-1.75.88-3.84.61-5.67.18s-10.73-3.85-10,1c.39,2.44,5,2.91,6.83,3.47l-.73-1.29-2.08,6.87,1.29-.73-7.16-2.17c-.47-.14-1-.25-1.4-.42s.27.16-.13-.06a7.76,7.76,0,0,1-2.32-1.94,8,8,0,0,1,1.51-11.21,9.18,9.18,0,0,1,6-1.63c1.34.11,1.34-2,0-2.11Z"/><path class="cls-1" d="M49.57,7.94,40.44,5.17a1.05,1.05,0,0,0-.56,2L49,10a1,1,0,0,0,.56-2Z"/><path class="cls-1" d="M44.81,14.82l-2.87,9.5a1,1,0,0,0,2,.56l2.88-9.5a1.05,1.05,0,0,0-2-.56Z"/><path class="cls-1" d="M38.29,35.85l-7.8-2.36a1.05,1.05,0,0,0-.56,2l7.8,2.36c1.29.39,1.85-1.64.56-2Z"/><path class="cls-1" d="M90.34,67.5l-14-4.24a1.05,1.05,0,0,0-.56,2l14,4.24c1.29.39,1.85-1.64.56-2Z"/><path class="cls-1" d="M98.26,64.33l-14-4.23a1.05,1.05,0,0,0-.56,2l14,4.23c1.29.39,1.85-1.64.55-2Z"/><path class="cls-1" d="M94.49,56.69l-11-3.33c-1.3-.4-1.85,1.63-.56,2l11,3.34a1.05,1.05,0,0,0,.56-2Z"/><path class="cls-1" d="M42.89,42l-11.1-3.36a1.05,1.05,0,0,0-.56,2L42.33,44c1.3.4,1.85-1.63.56-2Z"/><path class="cls-1" d="M64.41,39.79l8.25,2.5c1,.3,2,.7,2.74-.33s.9-2.72,1.26-3.89c.29-1,1.06-2.42.3-3.33-.6-.71-2.09-.89-2.91-1.14L68.74,32c-.8-.24-2-.87-2.86-.48-1.15.54-1.39,2.85-1.71,3.89s-1.42,3.13-.22,4.11c1,.85,2.53-.63,1.48-1.49.3.25-.17.7.15,0a7.35,7.35,0,0,0,.28-.91l.8-2.66a4.22,4.22,0,0,0,.27-.9l.12-.39c.14-.36-.1-.25-.7.32a4.66,4.66,0,0,0,1,.29l5.09,1.54,2.32.7c.22.07,1.46.55.73-.07-.52-.45-.07-.36-.37.12a4.76,4.76,0,0,0-.27.91L74,39.62a4.67,4.67,0,0,0-.27.9l-.12.39c-.13.36.1.25.71-.32a8.32,8.32,0,0,0-1.09-.33L65,37.76A1.05,1.05,0,0,0,64.41,39.79Z"/></svg>