<svg id="圖層_2" data-name="圖層 2" xmlns="http://www.w3.org/2000/svg" viewBox="0 0 100 70"><defs><style>.cls-1{fill:#231815;}</style></defs><title>icons for site</title><path class="cls-1" d="M35.29,48.71H31.71c-.86,0-2.53-.33-3.33.13S27,50.92,26.62,51.65l-1.79,3.11a1,1,0,0,0,0,1c1,1.71,1.89,3.47,3,5.13.92,1.42,2.75.91,4.3.91s3.35.5,4.24-.82c1.11-1.65,2-3.49,3-5.22a1,1,0,0,0,0-1l-3.22-5.58a1,1,0,0,0-1.63,1l3.21,5.57v-1l-3.21,5.57.81-.47H28.86l.82.47-3.22-5.57v1l3.22-5.57-.82.47h6.43A1,1,0,0,0,35.29,48.71Z"/><path class="cls-1" d="M46.24,21.3,41.53,26l-2.75,2.74a6.11,6.11,0,0,0-.62.63c0,.07.67.15.63-.12s-.46-.46-.56-.57l-1.46-1.46C36.54,27,35.83,26,35.5,26s-.13.6-.1.62.19-.21.23-.23a5.57,5.57,0,0,0,1-1l6-6c.07-.07.79-.68.77-.77s-.66-.2-.62.1c0,.15.46.47.56.57l1.83,1.82c.23.23.45.5.7.71.53.43,0,.23.1-.05-.46,1.13,1.37,1.62,1.83.51.52-1.27-1.14-2.36-1.91-3.12s-1.89-2.49-3.1-2.28c-.87.16-1.71,1.38-2.27,1.94l-4,4A25.55,25.55,0,0,0,34,25.29c-.88,1.2.09,2,.92,2.81S36.85,30.52,38,31s1.77-.56,2.44-1.23l7.13-7.13A1,1,0,0,0,46.24,21.3Z"/><path class="cls-1" d="M65.9,54.41l5.34-5.34a1,1,0,0,0-1.35-1.34l-5.34,5.34a1,1,0,0,0,1.35,1.34Z"/><path class="cls-1" d="M34.73,25.12c-4.4.43-8-3.11-9.6-6.89A25.92,25.92,0,0,1,23.18,6.15c.11-.91.41-2.35,1-2.79l-1.49-.19a14,14,0,0,0,9,6c4.79,1.15,9.83,3.12,10.28,8.73.09,1.21,2,1.22,1.89,0-.41-5.12-3.88-8.12-8.54-9.69-2.37-.8-5-1-7.13-2.33A11.58,11.58,0,0,1,24.3,2.21,1,1,0,0,0,22.81,2c-1,.8-1.32,2.51-1.47,3.68A27.4,27.4,0,0,0,23.39,19c1.83,4.42,6.2,8.55,11.34,8,1.2-.12,1.21-2,0-1.89Z"/><path class="cls-1" d="M82.34,12.51a3.61,3.61,0,0,0-1.14,1L78.65,16l-4.08,4,.93-.24L69,17.58l.67.66-2-6.5-.24.92,3.95-4L73.79,6.1c.3-.31.84-.71.95-1.15a.94.94,0,0,0-.66-1.16A13,13,0,0,0,59.46,22l.15-1.15L39.51,41l-2.87,2.87,1.15-.15A12.89,12.89,0,0,0,19.4,57.58c1.78,9.82,14.14,13.85,21.43,7.11a13,13,0,0,0,2.77-15.2l-.15,1.15L63.54,30.55l2.87-2.87-1.15.15A13,13,0,0,0,83.51,13.17c-.26-1.19-2.09-.69-1.83.5A11.08,11.08,0,0,1,66.22,26.19a1,1,0,0,0-1.15.15L45,46.43,42.11,49.3A1,1,0,0,0,42,50.45a11,11,0,1,1-5.13-5.12A1,1,0,0,0,38,45.18l20.1-20.1L61,22.21a1,1,0,0,0,.15-1.15A11.09,11.09,0,0,1,73.58,5.61l-.66-1.16c.15-.61.31-.4,0-.12a7.27,7.27,0,0,0-.78.79l-2.5,2.56L66,11.32a1,1,0,0,0-.25.93L67,16c.28.88.48,2.55,1.2,3.2s2.36.87,3.22,1.16L75,21.62a.94.94,0,0,0,.93-.24l3.67-3.64,2.48-2.46c.27-.27.58-.53.83-.83s.6-.33-.05-.11C84,14,83.51,12.12,82.34,12.51Z"/><path class="cls-1" d="M56.79,36,76.71,55.89c1.13,1.12,3.06,2.51,2.45,4.34a3,3,0,0,1-4.62,1.49c-.35-.3-.66-.67-1-1L62.35,49.52,52.79,40a1,1,0,0,0-1.34,1.34l21.1,21.11c1.71,1.71,4,2.72,6.28,1.11,2.49-1.79,3.12-4.94.94-7.26-3.43-3.63-7.08-7.07-10.61-10.61l-11-11A1,1,0,0,0,56.79,36Z"/><path class="cls-1" d="M47.32,34.5l-4.56-4.57a6.83,6.83,0,0,0-1.14-1.14c-.71-.36.23-.32-.31.13.79-.66,1.49-1.49,2.22-2.22a15,15,0,0,0,2.18-2.18c-.27.44-.52-.44-.09.28a7.1,7.1,0,0,0,1.13,1.13l4.57,4.57c.86.86,2.21-.48,1.34-1.34C50.81,27.31,49,25.44,47.1,23.6s-3.43.28-4.91,1.76a18,18,0,0,0-2.34,2.36c-.7,1.05-.16,1.81.57,2.56C42.25,32.16,44.13,34,46,35.84a1,1,0,0,0,1.34-1.34Z"/><path class="cls-1" d="M37.06,22.65c-5.05.19-8.65-4-9.86-8.51a1,1,0,0,0-1.83.5c1.42,5.31,5.79,10.13,11.69,9.91,1.21,0,1.22-1.94,0-1.9Z"/></svg>