<svg id="圖層_2" data-name="圖層 2" xmlns="http://www.w3.org/2000/svg" viewBox="0 0 100 70"><defs><style>.cls-1{fill:#231815;}</style></defs><title>icons for site</title><path class="cls-1" d="M83.56,27.36a7.65,7.65,0,1,1-5.09-14.42,7.65,7.65,0,0,1,5.09,14.42c-1.25.48-.71,2.51.56,2a9.74,9.74,0,1,0-12.34-6.13,9.87,9.87,0,0,0,12.34,6.13C85.4,29,84.85,27,83.56,27.36Z"/><path class="cls-1" d="M25.6,38.18c-4.07,2.45-2,9.18,2.8,8.86,1.85-.13,3.92-1.26,5.65-1.85L61,36l7.5-2.58-1.18-.48a16.61,16.61,0,0,0,7.85,8.38c3,1.37,6,1,9-.08l8.65-3a5.28,5.28,0,0,0,1.87-.88,4.29,4.29,0,0,0-.41-6.62,4.63,4.63,0,0,0-4.3-.36l-6.94,2.38a5.94,5.94,0,0,1-3.95.27c-3.09-.92-3.72-5.68-4.64-8.36-1.21-3.52-2.08-7.43-4-10.68-2.58-4.38-7-7.59-12.31-6.55-3.52.68-7,2.28-10.39,3.44a20.21,20.21,0,0,0-2.3.81,4,4,0,0,0-1.14,6.51c1.49,1.4,3.24,1.27,5,.67l7.73-2.65c2.26-.78,4.25.18,5.18,2.58L63,17.5,29.53,29c-2.91,1-8.22,1.84-8.61,5.7-.29,2.81,2.57,5.89,5.49,5.42a32.35,32.35,0,0,0,4.94-1.69l17-5.84c1.27-.44.72-2.46-.56-2L34.66,35.05,27.3,37.57a9.06,9.06,0,0,1-1.41.49c.47-.07-.26,0-.48-.13a3.24,3.24,0,0,1-2.26-2c-.39-1.24.15-2,1.06-2.74.14-.11,1-.52.48-.3.3-.13.62-.21.93-.32L31,30.68l18.3-6.27,14.23-4.89a1.06,1.06,0,0,0,.74-1.29c-1.38-3.53-4.47-5.18-8-4l-6.41,2.2c-.67.23-1.34.5-2,.7-.4.12-.16.07-.13.07a2.57,2.57,0,0,1-1.54-.35c-1.63-1-1-2.67.39-3.38-.45.23.09,0,.21-.06,1.57-.58,3.17-1.09,4.76-1.63,3.22-1.11,6.9-3.09,10.39-2.35a10.12,10.12,0,0,1,5.8,4.07C69.51,16,70,18.08,71,21l3,8.7c.79,2.32,1.72,4.32,4.19,5.19,3.28,1.14,6.29-.45,9.35-1.5l2.89-1a7.16,7.16,0,0,1,1.13-.36c1.48,0,2.93,1.16,2.35,2.82-.08.23-.73,1-.64,1s.07,0,0,0a24.45,24.45,0,0,1-4,1.38C85.8,38.43,81.75,40.65,78,40c-4.08-.71-7.29-4.52-8.89-8.16a1,1,0,0,0-1.18-.48l-38,13a9.81,9.81,0,0,1-1.73.59c.56-.08-.38-.07-.55-.14a3.69,3.69,0,0,1-1.58-.93A2.59,2.59,0,0,1,26.66,40a1,1,0,0,0-1.06-1.81Z"/><path class="cls-1" d="M44.1,14.21,25.66,15.46A1.07,1.07,0,0,0,24.75,17c1.53,2.31-.32,4.79.13,7.27a6.42,6.42,0,0,0,1.35,2.92c.9,1.09,2.25,1.58,2.79,3s2.51.71,2-.56C30,26.8,26.37,25.93,27,22.4c.38-2.27,1-4.31-.39-6.42l-.91,1.58L44.1,16.31c1.34-.09,1.35-2.19,0-2.1Z"/><path class="cls-1" d="M69.62,34.72,42.75,53.25,39,55.87l1.57.91a6.92,6.92,0,0,0-2.89-4.89c-1.39-1.11-2.37-2.36-2.16-4.24.17-1.5.68-2.56.33-4.1-.29-1.32-2.31-.76-2,.56s-.47,2.75-.44,4.2a6.4,6.4,0,0,0,.84,3c1.17,2,4,2.89,4.25,5.48a1.05,1.05,0,0,0,1.57.9L66.88,39.16l3.8-2.63c1.11-.76.06-2.58-1.06-1.81Z"/><path class="cls-1" d="M24.41,55.32,8.56,61.1c-1.26.46-.72,2.48.55,2L25,57.35c1.26-.46.72-2.49-.55-2Z"/><path class="cls-1" d="M21,20,5.21,25.73c-1.25.46-.71,2.48.56,2L21.53,22c1.26-.46.71-2.49-.56-2Z"/><path class="cls-1" d="M16.92,49.76l-13.74,5c-1.26.46-.72,2.49.56,2l13.74-5c1.26-.46.72-2.49-.56-2Z"/><path class="cls-1" d="M17.64,42l-11,4c-1.26.46-.71,2.49.56,2l11-4c1.25-.46.71-2.49-.56-2Z"/><path class="cls-1" d="M17.64,28.55l-7.59,2.76c-1.26.46-.71,2.49.56,2l7.59-2.77c1.25-.45.71-2.48-.56-2Z"/></svg>